#!OML:ASF X:\für Bonn\!DataBase\2005_08_10_Bjorn_Final\c3d\bjorn.ASF
:FULLY-SPECIFIED
:DEGREES
76
root 1.3089 8.48123 3.80855 -188.976 -9.53156 -182.434
lowerback 35.5093 0.311052 5.9539
upperback 15.3821 -2.83558 0.641806
thorax -0.930372 -3.21349 -1.52899
lowerneck -16.3207 -2.69242 0.467331
upperneck -6.14895 -4.65575 1.91211
head 0.800095 -2.7341 0.262894
rclavicle -5.1684e-015 1.23246e-014
rhumerus 80.9221 -4.33139 -71.8921
rradius 9.32728
rwrist 44.0813
rhand -17.3205 12.6386
rfingers 7.12502
rthumb 8.92606 -17.1526
lclavicle -5.1684e-015 1.23246e-014
lhumerus 86.4578 -7.62396 57.5024
lradius 9.15289
lwrist -39.5288
lhand -30.3944 -6.14664
lfingers 7.12502
lthumb -3.69832 23.801
rfemur 22.7136 -76.5736 -106.24
rtibia 151.578
rfoot -68.4191 46.0631
rtoes -39.3744
lfemur -78.2814 21.7959 -23.1013
ltibia 151.276
lfoot -37.0783 -6.86811
ltoes -34.5092
77
root 1.30938 8.45568 3.81484 -189.06 -9.58997 -182.518
lowerback 35.7636 0.253809 5.97034
upperback 15.3788 -2.9159 0.582975
thorax -1.02603 -3.26174 -1.56039
lowerneck -16.4577 -2.64676 0.515208
upperneck -6.34878 -4.63825 1.93282
head 0.756073 -2.74326 0.262532
rclavicle -1.35174e-014 9.93923e-015
rhumerus 80.8169 -4.18216 -71.851
rradius 9.17005
rwrist 44.3453
rhand -17.5348 12.7386
rfingers 7.12502
rthumb 8.71929 -17.0614
lclavicle -1.35174e-014 9.93923e-015
lhumerus 86.2947 -7.61576 57.7274
lradius 9.14706
lwrist -39.6077
lhand -30.1709 -6.28577
lfingers 7.12502
lthumb -3.48251 23.6655
rfemur 24.284 -76.287 -108.296
rtibia 151.74
rfoot -68.7139 46.4508
rtoes -39.1167
lfemur -78.3923 21.702 -23.1819
ltibia 151.412
lfoot -37.0055 -7.11703
ltoes -34.046
78
root 1.3101 8.44297 3.82138 -189.123 -9.64913 -182.607
lowerback 35.9741 0.205815 5.97472
upperback 15.3963 -2.99522 0.518233
thorax -1.0844 -3.30967 -1.59514
lowerneck -16.7094 -2.59112 0.567167
upperneck -6.49722 -4.61358 1.97597
head 0.74843 -2.74872 0.265965
rclavicle 3.97569e-015 1.94809e-014
rhumerus 80.7912 -4.06192 -71.8247
rradius 8.98223
rwrist 44.7376
rhand -17.7306 12.8022
rfingers 7.12502
rthumb 8.53035 -17.0055
lclavicle 3.97569e-015 1.94809e-014
lhumerus 86.0894 -7.64557 57.9342
lradius 9.2883
lwrist -39.7016
lhand -29.9046 -6.33203
lfingers 7.12502
lthumb -3.22531 23.6233
rfemur 24.7566 -76.1586 -109.102
rtibia 151.81
rfoot -68.7624 46.7775
rtoes -38.8879
lfemur -78.4692 21.6084 -23.2895
ltibia 151.464
lfoot -36.9121 -7.24247
ltoes -33.7346
79
root 1.31139 8.44296 3.82776 -189.146 -9.6971 -182.678
lowerback 36.1398 0.168953 5.96746
upperback 15.4089 -3.05938 0.46292
thorax -1.13185 -3.34812 -1.62063
lowerneck -17.0256 -2.5339 0.660221
upperneck -6.63302 -4.60023 1.97483
head 0.753377 -2.76308 0.246652
rclavicle -1.90833e-014 -1.27222e-014
rhumerus 80.7846 -3.97728 -71.7964
rradius 8.8355
rwrist 45.1769
rhand -17.792 12.8897
rfingers 7.12502
rthumb 8.47104 -16.9204
lclavicle -1.90833e-014 -1.27222e-014
lhumerus 85.8037 -7.73291 58.1418
lradius 9.56792
lwrist -39.8436
lhand -29.7241 -6.19427
lfingers 7.12502
lthumb -3.05097 23.7636
rfemur 24.3757 -76.2003 -108.881
rtibia 151.794
rfoot -68.7183 46.9612
rtoes -38.8356
lfemur -78.5111 21.5168 -23.3475
ltibia 151.422
lfoot -36.8229 -7.53865
ltoes -33.1988
80
root 1.31216 8.4541 3.83445 -189.133 -9.77246 -182.766
lowerback 36.2659 0.120964 5.95538
upperback 15.4178 -3.13414 0.401969
thorax -1.17142 -3.38845 -1.64768
lowerneck -17.4285 -2.47575 0.760334
upperneck -6.70901 -4.59012 1.94423
head 0.791414 -2.77877 0.214121
rclavicle 1.27222e-014 -3.57812e-014
rhumerus 80.8176 -3.90832 -71.7642
rradius 8.68156
rwrist 45.6447
rhand -17.7847 12.9708
rfingers 7.12502
rthumb 8.4781 -16.839
lclavicle 1.27222e-014 -3.57812e-014
lhumerus 85.4898 -7.85928 58.351
lradius 9.90597
lwrist -39.9905
lhand -29.5589 -5.93058
lfingers 7.12502
lthumb -2.89146 24.0296
rfemur 23.3837 -76.3348 -107.933
rtibia 151.677
rfoot -68.5747 47.1624
rtoes -38.7525
lfemur -78.4968 21.3982 -23.4313
ltibia 151.298
lfoot -36.7069 -7.85969
ltoes -32.5783
81
root 1.31371 8.47823 3.83968 -189.073 -9.81736 -182.855
lowerback 36.3447 0.0895801 5.91434
upperback 15.4169 -3.19045 0.3323
thorax -1.20613 -3.4168 -1.6764
lowerneck -17.9195 -2.41982 0.894842
upperneck -6.68874 -4.58879 1.89776
head 0.874999 -2.79623 0.166975
rclavicle 1.35174e-014 0
rhumerus 80.8581 -3.84028 -71.751
rradius 8.54319
rwrist 46.0991
rhand -17.6242 13.0389
rfingers 7.12502
rthumb 8.63298 -16.7646
lclavicle 1.35174e-014 0
lhumerus 85.1405 -8.0023 58.5526
lradius 10.3032
lwrist -40.2724
lhand -29.5164 -5.55084
lfingers 7.12502
lthumb -2.8504 24.4099
rfemur 21.4012 -76.6207 -105.839
rtibia 151.486
rfoot -68.323 47.1389
rtoes -38.9239
lfemur -78.4188 21.3036 -23.4884
ltibia 151.076
lfoot -36.608 -8.25905
ltoes -31.8401
82
root 1.3151 8.51535 3.84528 -188.961 -9.87154 -182.933
lowerback 36.3603 0.0451173 5.88054
upperback 15.4054 -3.25215 0.267452
thorax -1.2322 -3.44273 -1.70461
lowerneck -18.3964 -2.37376 0.968694
upperneck -6.6733 -4.5901 1.88936
head 0.957328 -2.81318 0.141944
rclavicle -1.19271e-014 2.42517e-014
rhumerus 80.8148 -3.75078 -71.737
rradius 8.53416
rwrist 46.5798
rhand -17.4127 13.0595
rfingers 7.12502
rthumb 8.83711 -16.7355
lclavicle -1.19271e-014 2.42517e-014
lhumerus 84.6498 -8.02577 59.8141
lradius 10.6833
lwrist -41.5999
lhand -29.4254 -5.35657
lfingers 7.12502
lthumb -2.76258 24.6053
rfemur 18.3013 -77.0301 -102.458
rtibia 151.192
rfoot -67.8408 47.1248
rtoes -39.0266
lfemur -78.3062 21.1945 -23.5554
ltibia 150.768
lfoot -36.5173 -8.66882
ltoes -31.0771
83
root 1.3166 8.56789 3.85209 -188.784 -9.92706 -183.023
lowerback 36.3352 0.000717645 5.83206
upperback 15.3835 -3.31049 0.188195
thorax -1.25758 -3.46268 -1.74267
lowerneck -18.9847 -2.31491 1.10986
upperneck -6.5683 -4.59011 1.82625
head 1.08572 -2.82936 0.0844169
rclavicle -2.5842e-014 1.98785e-014
rhumerus 80.663 -3.63992 -71.7532
rradius 8.67041
rwrist 47.0473
rhand -17.1603 13.0885
rfingers 7.12502
rthumb 9.08062 -16.6961
lclavicle -2.5842e-014 1.98785e-014
lhumerus 84.3846 -8.03085 60.3331
lradius 10.8566
lwrist -42.2797
lhand -29.4569 -5.09744
lfingers 7.12502
lthumb -2.79296 24.864
rfemur 13.0047 -77.6195 -96.6949
rtibia 150.804
rfoot -66.8468 47.1919
rtoes -38.9423
lfemur -78.2 21.0819 -23.6612
ltibia 150.352
lfoot -36.4021 -9.01179
ltoes -30.4423
84
root 1.31736 8.63574 3.85964 -188.531 -9.96208 -183.122
lowerback 36.2445 -0.0309825 5.75776
upperback 15.3373 -3.34576 0.112013
thorax -1.28702 -3.46594 -1.77346
lowerneck -19.5269 -2.26445 1.20521
upperneck -6.47545 -4.5905 1.80552
head 1.20517 -2.84323 0.0488058
rclavicle 2.38542e-015 1.39149e-014
rhumerus 80.4768 -3.54275 -71.7563
rradius 8.80586
rwrist 47.3778
rhand -16.9133 13.1226
rfingers 7.12502
rthumb 9.31896 -16.6515
lclavicle 2.38542e-015 1.39149e-014
lhumerus 84.3287 -8.08473 60.021
lradius 10.8183
lwrist -42.104
lhand -29.5478 -4.73526
lfingers 7.12502
lthumb -2.88071 25.225
rfemur 4.66392 -78.2397 -87.7113
rtibia 150.303
rfoot -65.338 47.2968
rtoes -38.7901
lfemur -78.0935 20.9861 -23.8072
ltibia 149.831
lfoot -36.2252 -9.41416
ltoes -29.7259
85
root 1.31851 8.71958 3.86875 -188.221 -10.0067 -183.218
lowerback 36.0818 -0.0733679 5.68643
upperback 15.2978 -3.39221 0.0309579
thorax -1.2865 -3.47104 -1.81144
lowerneck -20.0897 -2.21066 1.32361
upperneck -6.37796 -4.59484 1.7476
head 1.32873 -2.86116 -0.00370181
rclavicle 9.93923e-015 -1.27222e-014
rhumerus 80.4093 -3.45118 -71.7663
rradius 8.78733
rwrist 47.6135
rhand -16.8053 13.1481
rfingers 7.12502
rthumb 9.42321 -16.6213
lclavicle 9.93923e-015 -1.27222e-014
lhumerus 84.4257 -8.14176 59.1681
lradius 10.6071
lwrist -41.439
lhand -29.6967 -4.3617
lfingers 7.12502
lthumb -3.02453 25.5966
rfemur -6.69515 -78.5521 -75.5298
rtibia 149.71
rfoot -63.4875 47.204
rtoes -38.698
lfemur -77.999 20.8779 -24.0068
ltibia 149.199
lfoot -36.0752 -9.59196
ltoes -29.4986
86
root 1.31918 8.81791 3.87785 -187.872 -10.0361 -183.317
lowerback 35.8672 -0.106725 5.60577
upperback 15.2317 -3.41438 -0.0557846
thorax -1.29697 -3.45814 -1.85938
lowerneck -20.5401 -2.1772 1.41257
upperneck -6.31829 -4.61371 1.7317
head 1.42265 -2.88371 -0.0360974
rclavicle 6.75868e-015 -1.66979e-014
rhumerus 80.3853 -3.42726 -71.7631
rradius 8.61707
rwrist 47.6879
rhand -16.829 13.2483
rfingers 7.12502
rthumb 9.40034 -16.522
lclavicle 6.75868e-015 -1.66979e-014
lhumerus 84.4996 -8.26496 58.1295
lradius 10.4243
lwrist -40.4907
lhand -29.7165 -4.13278
lfingers 7.12502
lthumb -3.04367 25.8252
rfemur -20.432 -78.2195 -60.8262
rtibia 149.019
rfoot -61.3927 46.8473
rtoes -38.6578
lfemur -77.8818 20.7808 -24.2218
ltibia 148.474
lfoot -35.887 -9.72989
ltoes -29.3138
87
root 1.31955 8.92977 3.8881 -187.49 -10.0668 -183.4
lowerback 35.595 -0.140587 5.49756
upperback 15.1655 -3.44386 -0.112271
thorax -1.28602 -3.44981 -1.86218
lowerneck -20.9405 -2.15012 1.3986
upperneck -6.28387 -4.61772 1.76276
head 1.50324 -2.89614 -0.0333885
rclavicle -6.36111e-015 -3.49861e-014
rhumerus 80.4318 -3.3566 -71.7318
rradius 8.39266
rwrist 47.6168
rhand -16.9714 13.3469
rfingers 7.12502
rthumb 9.26297 -16.4296
lclavicle -6.36111e-015 -3.49861e-014
lhumerus 84.4874 -8.32644 57.5168
lradius 10.2981
lwrist -39.9917
lhand -29.6289 -3.96743
lfingers 7.12502
lthumb -2.95909 25.9918
rfemur -34.5713 -76.926 -45.5739
rtibia 148.248
rfoot -59.0479 46.1212
rtoes -38.8067
lfemur -77.7336 20.6749 -24.4166
ltibia 147.641
lfoot -35.626 -9.9871
ltoes -28.9671
